<svg xmlns="http://www.w3.org/2000/svg" width="12" height="12" viewBox="0 0 12 12">
  <defs>
    <style>
      .cls-1 {
        fill: #fff;
      }
    </style>
  </defs>
  <path id="Icon_awesome-download" data-name="Icon awesome-download" class="cls-1" d="M5.063,0H6.938A.561.561,0,0,1,7.5.563V4.5H9.555a.468.468,0,0,1,.33.8L6.321,8.866a.454.454,0,0,1-.64,0L2.112,5.3a.468.468,0,0,1,.33-.8H4.5V.563A.561.561,0,0,1,5.063,0ZM12,8.813v2.625a.561.561,0,0,1-.562.563H.563A.561.561,0,0,1,0,11.438V8.813A.561.561,0,0,1,.563,8.25H4L5.149,9.4a1.2,1.2,0,0,0,1.7,0L8,8.25h3.438A.561.561,0,0,1,12,8.813ZM9.094,10.875a.469.469,0,1,0-.469.469A.47.47,0,0,0,9.094,10.875Zm1.5,0a.469.469,0,1,0-.469.469A.47.47,0,0,0,10.594,10.875Z"/>
</svg>
