<svg xmlns="http://www.w3.org/2000/svg" width="12" height="19.2" viewBox="0 0 12 19.2">
  <defs>
    <style>
      .cls-1 {
        fill: #ff006c;
      }
    </style>
  </defs>
  <path id="Icon_metro-location" data-name="Icon metro-location" class="cls-1" d="M14.355,1.928a6,6,0,0,0-6,6c0,6,6,13.2,6,13.2s6-7.2,6-13.2a6,6,0,0,0-6-6Zm0,9.675A3.675,3.675,0,1,1,18.03,7.928,3.675,3.675,0,0,1,14.355,11.6ZM12.03,7.928a2.325,2.325,0,1,1,2.325,2.325A2.325,2.325,0,0,1,12.03,7.928Z" transform="translate(-8.355 -1.928)"/>
</svg>
