<svg xmlns="http://www.w3.org/2000/svg" width="100" height="66.667" viewBox="0 0 100 66.667">
  <defs>
    <style>
      .cls-1 {
        fill: #fff;
      }
    </style>
  </defs>
  <path id="Icon_awesome-keyboard" data-name="Icon awesome-keyboard" class="cls-1" d="M91.667,71.167H8.333A8.333,8.333,0,0,1,0,62.833v-50A8.333,8.333,0,0,1,8.333,4.5H91.667A8.333,8.333,0,0,1,100,12.833v50A8.333,8.333,0,0,1,91.667,71.167ZM22.222,24.639V17.694a2.083,2.083,0,0,0-2.083-2.083H13.194a2.083,2.083,0,0,0-2.083,2.083v6.944a2.083,2.083,0,0,0,2.083,2.083h6.944A2.083,2.083,0,0,0,22.222,24.639Zm16.667,0V17.694a2.083,2.083,0,0,0-2.083-2.083H29.861a2.083,2.083,0,0,0-2.083,2.083v6.944a2.083,2.083,0,0,0,2.083,2.083h6.944A2.083,2.083,0,0,0,38.889,24.639Zm16.667,0V17.694a2.083,2.083,0,0,0-2.083-2.083H46.528a2.083,2.083,0,0,0-2.083,2.083v6.944a2.083,2.083,0,0,0,2.083,2.083h6.944A2.083,2.083,0,0,0,55.556,24.639Zm16.667,0V17.694a2.083,2.083,0,0,0-2.083-2.083H63.194a2.083,2.083,0,0,0-2.083,2.083v6.944a2.083,2.083,0,0,0,2.083,2.083h6.944A2.083,2.083,0,0,0,72.222,24.639Zm16.667,0V17.694a2.083,2.083,0,0,0-2.083-2.083H79.861a2.083,2.083,0,0,0-2.083,2.083v6.944a2.083,2.083,0,0,0,2.083,2.083h6.944A2.083,2.083,0,0,0,88.889,24.639ZM30.556,41.306V34.361a2.083,2.083,0,0,0-2.083-2.083H21.528a2.083,2.083,0,0,0-2.083,2.083v6.944a2.083,2.083,0,0,0,2.083,2.083h6.944A2.083,2.083,0,0,0,30.556,41.306Zm16.667,0V34.361a2.083,2.083,0,0,0-2.083-2.083H38.194a2.083,2.083,0,0,0-2.083,2.083v6.944a2.083,2.083,0,0,0,2.083,2.083h6.944A2.083,2.083,0,0,0,47.222,41.306Zm16.667,0V34.361a2.083,2.083,0,0,0-2.083-2.083H54.861a2.083,2.083,0,0,0-2.083,2.083v6.944a2.083,2.083,0,0,0,2.083,2.083h6.944A2.083,2.083,0,0,0,63.889,41.306Zm16.667,0V34.361a2.083,2.083,0,0,0-2.083-2.083H71.528a2.083,2.083,0,0,0-2.083,2.083v6.944a2.083,2.083,0,0,0,2.083,2.083h6.944A2.083,2.083,0,0,0,80.556,41.306ZM22.222,57.972V51.028a2.083,2.083,0,0,0-2.083-2.083H13.194a2.083,2.083,0,0,0-2.083,2.083v6.944a2.083,2.083,0,0,0,2.083,2.083h6.944A2.083,2.083,0,0,0,22.222,57.972Zm50,0V51.028a2.083,2.083,0,0,0-2.083-2.083H29.861a2.083,2.083,0,0,0-2.083,2.083v6.944a2.083,2.083,0,0,0,2.083,2.083H70.139A2.083,2.083,0,0,0,72.222,57.972Zm16.667,0V51.028a2.083,2.083,0,0,0-2.083-2.083H79.861a2.083,2.083,0,0,0-2.083,2.083v6.944a2.083,2.083,0,0,0,2.083,2.083h6.944A2.083,2.083,0,0,0,88.889,57.972Z" transform="translate(0 -4.5)"/>
</svg>
