<svg xmlns="http://www.w3.org/2000/svg" width="70.876" height="70.876" viewBox="0 0 70.876 70.876">
  <defs>
    <style>
      .cls-1 {
        fill: #553b7d;
      }
    </style>
  </defs>
  <path id="Icon_awesome-bootstrap" data-name="Icon awesome-bootstrap" class="cls-1" d="M46.243,46.536c0,6.709-6.284,6.554-6.948,6.554H26.5V40.167h12.8c6.733,0,6.948,5.047,6.948,6.369Zm-7.934-11.57c.106,0,6.081.158,6.081-5.744,0-2.455-.555-5.675-6.081-5.675H26.5V34.967Zm32.567-20.9v47.25A11.848,11.848,0,0,1,59.063,73.126H11.813A11.848,11.848,0,0,1,0,61.313V14.063A11.848,11.848,0,0,1,11.813,2.25h47.25A11.848,11.848,0,0,1,70.876,14.063ZM53.481,47.475c0-3.413-1.052-9.222-7.76-10.655V36.7a9.064,9.064,0,0,0,5.907-8.8c0-1.107.316-10.249-12.277-10.249H19.26V59c20.287,0,22.128.266,25.882-.9,2.248-.7,8.339-2.845,8.339-10.619Z" transform="translate(0 -2.25)"/>
</svg>
