<svg xmlns="http://www.w3.org/2000/svg" width="70.876" height="68.265" viewBox="0 0 70.876 68.265">
  <defs>
    <style>
      .cls-1 {
        fill: #0968ac;
      }
    </style>
  </defs>
  <path id="Icon_simple-jquery" data-name="Icon simple-jquery" class="cls-1" d="M4.52,16.708c-6.277,9.018-5.5,20.748-.7,30.325.109.234.231.455.349.677a4.77,4.77,0,0,0,.228.441,2.494,2.494,0,0,0,.139.245c.077.154.16.3.24.449l.464.784c.086.145.169.287.266.432.163.278.355.553.523.831.077.115.148.231.234.346q.43.676.917,1.313c.231.316.461.624.71.931.08.112.169.225.251.337l.653.8c.08.092.16.2.245.293.29.349.6.689.9,1.032,0,.006.009.012.015.021a9.256,9.256,0,0,0,1.254,1.3c.237.242.473.485.724.721l.3.287c.328.308.656.615,1,.911.006,0,.009.006.015.009l.169.148c.3.263.606.526.917.769l.37.31c.251.2.512.393.769.591l.4.307c.275.207.568.411.849.612.1.074.207.148.313.216l.086.068.831.547.355.237c.435.278.866.541,1.3.8.124.062.248.13.364.2.319.183.651.37.973.541.177.1.361.186.544.278.222.124.452.245.689.37a.957.957,0,0,1,.166.068c.1.044.189.092.284.139.355.177.724.346,1.109.514a2.415,2.415,0,0,1,.225.1c.426.186.852.364,1.292.538.1.03.207.08.31.118.4.151.81.3,1.215.449l.148.053c.452.154.9.3,1.357.444.106.03.216.068.328.1a14.379,14.379,0,0,0,1.4.4c30.337,5.529,39.154-18.241,39.154-18.241-7.407,9.645-20.55,12.188-33,9.358-.461-.106-.923-.254-1.387-.39q-.844-.249-1.677-.535l-.183-.071c-.4-.136-.789-.287-1.183-.438q-.16-.067-.325-.121c-.435-.174-.857-.355-1.277-.541-.092-.03-.169-.071-.26-.106q-.536-.247-1.067-.5c-.109-.047-.207-.1-.313-.154-.278-.13-.556-.278-.828-.42q-.28-.135-.553-.284c-.334-.177-.668-.37-1-.553-.1-.071-.216-.13-.331-.2q-.654-.387-1.3-.8-.178-.111-.349-.234-.471-.29-.923-.609c-.1-.068-.2-.142-.3-.216q-.441-.305-.869-.627c-.124-.1-.257-.2-.39-.3-.26-.2-.523-.4-.784-.615l-.349-.278q-.5-.405-.988-.831a.763.763,0,0,0-.109-.089l-1.026-.934-.3-.278c-.242-.245-.491-.482-.739-.724l-.287-.3q-.469-.466-.914-.955l-.044-.047c-.313-.343-.618-.692-.925-1.047-.08-.092-.154-.189-.237-.287l-.668-.819q-.511-.656-1.005-1.325c-6.9-9.426-9.4-22.436-3.876-33.108M24,9.112c-4.551,6.532-4.293,15.266-.751,22.173a26.9,26.9,0,0,0,2,3.347,15.681,15.681,0,0,0,2.342,2.915c.316.361.659.71,1.017,1.062l.266.266q.506.488,1.035.961l.044.038q.6.522,1.224,1.011c.1.068.186.148.284.216.414.319.831.627,1.263.931l.044.027c.183.133.378.254.585.384.083.053.177.124.266.177.313.2.621.39.937.582.05.021.095.047.142.068.266.163.556.319.834.464.1.059.192.1.293.16.2.1.393.2.582.3l.095.041c.4.2.807.378,1.206.562.1.038.186.071.272.112.328.142.662.278.991.405.148.05.287.109.426.154.3.112.618.216.917.319l.414.133a10,10,0,0,0,1.325.381c23.418,3.882,28.841-14.154,28.841-14.154-4.882,7.025-14.329,10.373-24.4,7.759q-.668-.173-1.325-.384c-.142-.038-.266-.083-.4-.124-.308-.106-.624-.21-.923-.322l-.426-.16c-.331-.133-.668-.257-.991-.4-.1-.044-.192-.074-.269-.118-.414-.186-.831-.37-1.233-.568l-.609-.316-.352-.177c-.272-.142-.523-.29-.784-.444A1.836,1.836,0,0,1,39,36.8c-.313-.2-.639-.384-.937-.585-.1-.056-.192-.124-.287-.183l-.615-.4c-.426-.3-.843-.615-1.263-.923-.095-.086-.186-.157-.278-.234a28.114,28.114,0,0,1-9.574-13.625A21.173,21.173,0,0,1,27.7,3.867m12.676-.435A13.651,13.651,0,0,0,39.281,16.6a18.589,18.589,0,0,0,10.656,9.95c.192.074.378.136.577.207l.26.08c.272.086.547.186.828.248,12.939,2.5,16.44-6.644,17.383-7.986C65.9,23.527,60.738,24.588,54.4,23.048a14.321,14.321,0,0,1-1.526-.473,18.758,18.758,0,0,1-1.824-.751,19.282,19.282,0,0,1-3.193-1.952c-5.677-4.3-9.193-12.507-5.491-19.193" transform="translate(-0.016 -0.68)"/>
</svg>
