<svg xmlns="http://www.w3.org/2000/svg" width="70.88" height="30.339" viewBox="0 0 70.88 30.339">
  <defs>
    <style>
      .cls-1 {
        fill: #fff;
      }
    </style>
  </defs>
  <path id="Icon_awesome-less" data-name="Icon awesome-less" class="cls-1" d="M67.863,19.44c0-2.271.354-3.611.354-6.048,0-3.788-1.4-5.007-4.486-5.007H61.461v2.681h.7c1.573,0,1.916.521,1.916,2.448,0,1.806-.177,3.611-.177,5.7,0,2.681.875,3.722,2.614,4.132v.177c-1.75.41-2.614,1.451-2.614,4.132,0,2.094.177,3.788.177,5.7,0,1.983-.41,2.5-1.916,2.5v.055h-.7v2.791h2.271c3.079,0,4.486-1.218,4.486-5.007,0-2.5-.354-3.788-.354-6.048,0-1.218.753-2.5,3.024-2.614V22.021c-2.271-.078-3.024-1.362-3.024-2.581Zm-11.7,3.545c-1.75-.7-3.378-1.108-3.378-2.271,0-.875.7-1.4,1.983-1.4a6.249,6.249,0,0,1,3.722,1.451l2.326-3.079A9.874,9.874,0,0,0,54.7,15.419c-3.954,0-6.635,2.271-6.635,5.472,0,2.847,2.5,4.309,4.6,5.117,1.806.7,3.556,1.285,3.556,2.448,0,.875-.7,1.451-2.271,1.451A7.336,7.336,0,0,1,49.465,28.1L47.139,31.48a11.236,11.236,0,0,0,6.635,2.448c4.652,0,7.156-2.448,7.156-5.649S58.437,23.738,56.166,22.984Zm-39.754,6.58c-.41,0-.93-.354-.93-1.451V8.374H7.218c-3.146,0-4.541,1.218-4.541,5.007,0,2.5.354,3.9.354,6.048,0,1.218-.753,2.5-3.024,2.614v3.024c2.271.055,3.024,1.34,3.024,2.559,0,2.149-.354,3.434-.354,5.937,0,3.788,1.4,5.007,4.486,5.007H9.433V35.889h-.7c-1.451,0-1.916-.587-1.916-2.5S7,29.83,7,27.681C7,25,6.121,23.959,4.382,23.549v-.177C6.132,22.962,7,21.921,7,19.24c0-2.094-.177-3.788-.177-5.7s.41-2.448,1.916-2.448H10.3v16.7c0,3.556,1.218,5.882,4.774,5.882a7.63,7.63,0,0,0,2.614-.41L17.1,29.475a2.325,2.325,0,0,1-.687.089Zm25.665-6.58c-1.806-.7-3.434-1.108-3.434-2.271,0-.875.7-1.4,1.983-1.4a6.249,6.249,0,0,1,3.722,1.451l2.326-3.079a9.874,9.874,0,0,0-6.114-2.271c-3.954,0-6.635,2.271-6.635,5.472,0,2.847,2.5,4.309,4.6,5.117,1.806.7,3.556,1.285,3.556,2.448,0,.875-.7,1.451-2.271,1.451A7.336,7.336,0,0,1,35.32,28.1L33.049,31.48a11.236,11.236,0,0,0,6.635,2.448c4.652,0,7.156-2.448,7.156-5.649S44.347,23.738,42.076,22.984ZM24.908,15.364c-4.253,0-8.319,3.556-8.208,9.138,0,5.76,3.788,9.138,8.784,9.138a11.536,11.536,0,0,0,6.225-1.983l-1.75-3.079a7.307,7.307,0,0,1-3.788,1.108,4.244,4.244,0,0,1-4.6-3.788H32.118a15.329,15.329,0,0,0,.177-2.149c.066-4.719-2.5-8.385-7.388-8.385ZM21.585,22.7c.354-2.326,1.75-3.434,3.378-3.434,2.094,0,2.913,1.451,2.913,3.434Z" transform="translate(-0.007 -8.374)"/>
</svg>
