<svg xmlns="http://www.w3.org/2000/svg" width="15" height="15" viewBox="0 0 15 15">
  <defs>
    <style>
      .cls-1 {
        fill: #0373b3;
      }
    </style>
  </defs>
  <path id="Icon_awesome-linkedin" data-name="Icon awesome-linkedin" class="cls-1" d="M13.929,2.25H1.068A1.076,1.076,0,0,0,0,3.331V16.169A1.076,1.076,0,0,0,1.068,17.25h12.86A1.079,1.079,0,0,0,15,16.169V3.331A1.079,1.079,0,0,0,13.929,2.25Zm-9.4,12.857H2.31V7.949H4.537v7.158ZM3.422,6.971A1.289,1.289,0,1,1,4.711,5.682,1.29,1.29,0,0,1,3.422,6.971Zm9.445,8.136H10.644V11.625c0-.83-.017-1.9-1.155-1.9-1.158,0-1.336.9-1.336,1.838v3.542H5.93V7.949H8.062v.978h.03A2.342,2.342,0,0,1,10.2,7.771c2.25,0,2.669,1.483,2.669,3.412Z" transform="translate(0 -2.25)"/>
</svg>
