<svg xmlns="http://www.w3.org/2000/svg" width="70.876" height="43.41" viewBox="0 0 70.876 43.41">
  <defs>
    <style>
      .cls-1 {
        fill: #90c63f;
      }
    </style>
  </defs>
  <path id="Icon_awesome-node" data-name="Icon awesome-node" class="cls-1" d="M35.028,47.63a1.463,1.463,0,0,1-.676-.177L32.226,46.19c-.321-.177-.166-.244-.055-.277a3.876,3.876,0,0,0,.963-.443.19.19,0,0,1,.155.011l1.639.975a.212.212,0,0,0,.2,0l6.4-3.7a.21.21,0,0,0,.1-.177V35.193a.188.188,0,0,0-.1-.177l-6.4-3.688a.212.212,0,0,0-.2,0l-6.4,3.688a.2.2,0,0,0-.1.177V42.58a.206.206,0,0,0,.1.166l1.75,1.008c.952.476,1.539-.089,1.539-.642v-7.3A.187.187,0,0,1,32,35.625h.808a.187.187,0,0,1,.188.188v7.3A1.766,1.766,0,0,1,31.108,45.1a2.745,2.745,0,0,1-1.473-.4l-1.683-.963a1.368,1.368,0,0,1-.676-1.163V35.193a1.331,1.331,0,0,1,.676-1.163l6.4-3.7a1.374,1.374,0,0,1,1.34,0l6.4,3.7a1.368,1.368,0,0,1,.676,1.163V42.58a1.331,1.331,0,0,1-.676,1.163l-6.4,3.7a1.226,1.226,0,0,1-.664.188ZM40.2,40.343c0-1.384-.93-1.75-2.9-2.016-1.993-.266-2.193-.4-2.193-.864,0-.388.166-.9,1.639-.9,1.318,0,1.805.288,2,1.174a.178.178,0,0,0,.177.144h.831a.183.183,0,0,0,.133-.055.174.174,0,0,0,.044-.144c-.133-1.528-1.141-2.237-3.189-2.237-1.827,0-2.913.775-2.913,2.06,0,1.406,1.085,1.783,2.835,1.96,2.093.21,2.259.509,2.259.919,0,.72-.576,1.019-1.927,1.019-1.694,0-2.071-.421-2.193-1.263a.182.182,0,0,0-.188-.155h-.831a.187.187,0,0,0-.188.188c0,1.074.587,2.359,3.389,2.359,2.049,0,3.212-.8,3.212-2.193Zm6.036-5.548a1.229,1.229,0,1,1-1.229-1.229A1.219,1.219,0,0,1,46.235,34.794Zm-.2,0A1.035,1.035,0,1,0,45,35.835,1.054,1.054,0,0,0,46.036,34.794Zm-.5.687H45.25c-.011-.066-.055-.421-.055-.432-.022-.078-.044-.122-.144-.122h-.244v.554h-.266V34.1h.476c.166,0,.487,0,.487.365a.325.325,0,0,1-.266.343c.188.011.2.133.233.31a1.545,1.545,0,0,0,.066.365Zm-.31-.975c0-.188-.133-.188-.2-.188h-.221v.388h.21A.187.187,0,0,0,45.228,34.507ZM15.205,18.726a.805.805,0,0,0-.41-.709L8.007,14.108A.876.876,0,0,0,7.63,14H7.564a.78.78,0,0,0-.377.111L.41,18.017a.818.818,0,0,0-.41.709L.011,29.246a.423.423,0,0,0,.2.354.39.39,0,0,0,.41,0l4.031-2.315a.832.832,0,0,0,.41-.709V21.66a.818.818,0,0,1,.41-.709l1.717-.986a.787.787,0,0,1,.41-.111.76.76,0,0,1,.41.111l1.717.986a.818.818,0,0,1,.41.709v4.917a.818.818,0,0,0,.41.709L14.574,29.6a.39.39,0,0,0,.41,0,.409.409,0,0,0,.2-.354ZM52.326,7.241V26.777a.818.818,0,0,1-.41.709l-6.789,3.92a.832.832,0,0,1-.819,0l-6.789-3.92a.818.818,0,0,1-.41-.709V18.936a.818.818,0,0,1,.41-.709l6.789-3.92a.831.831,0,0,1,.819,0l1.694.975a.29.29,0,0,0,.432-.244V4.628a.407.407,0,0,1,.609-.354l4.042,2.259a.8.8,0,0,1,.421.709ZM47.232,21.516a.21.21,0,0,0-.1-.177l-2.326-1.351a.235.235,0,0,0-.21,0l-2.326,1.351a.188.188,0,0,0-.1.177v2.691a.21.21,0,0,0,.1.177l2.326,1.34a.212.212,0,0,0,.2,0l2.326-1.34a.188.188,0,0,0,.1-.177V21.516Zm23.234-.078a.818.818,0,0,0,.41-.709V18.836a.818.818,0,0,0-.41-.709l-6.744-3.92a.831.831,0,0,0-.819,0l-6.789,3.92a.818.818,0,0,0-.41.709v7.841a.805.805,0,0,0,.41.709l6.744,3.843a.811.811,0,0,0,.808,0l4.075-2.27a.406.406,0,0,0,0-.709l-6.833-3.92a.41.41,0,0,1-.21-.354V21.516a.41.41,0,0,1,.21-.354l2.126-1.229a.39.39,0,0,1,.41,0l2.126,1.229a.434.434,0,0,1,.21.354v1.927a.416.416,0,0,0,.62.354l4.064-2.359Zm-8.56.388a.169.169,0,0,0-.078.133v1.506a.154.154,0,0,0,.078.133l1.307.753a.133.133,0,0,0,.155,0l1.307-.753a.169.169,0,0,0,.078-.133V21.959a.154.154,0,0,0-.078-.133l-1.307-.753a.133.133,0,0,0-.155,0ZM33.755,26.644v-7.8a.84.84,0,0,0-.432-.709l-6.766-3.9a.831.831,0,0,0-.82,0l-6.766,3.9a.826.826,0,0,0-.432.709v7.8a.854.854,0,0,0,.443.709l6.778,3.9a.8.8,0,0,0,.82,0l6.755-3.9a.823.823,0,0,0,.4-.52A.974.974,0,0,0,33.755,26.644ZM25.526,12.812l-.089.055h.122Zm8.439,14.419-.044-.078v.1Z" transform="translate(0 -4.22)"/>
</svg>
