<?xml version="1.0" encoding="UTF-8"?>
<svg width="185px" height="50px" viewBox="0 0 185 50" version="1.1" xmlns="http://www.w3.org/2000/svg" xmlns:xlink="http://www.w3.org/1999/xlink">
    <!-- Generator: Sketch 58 (84663) - https://sketch.com -->
    <title>One.com Logo</title>
    <desc>Created with Sketch.</desc>
    <defs>
        <linearGradient x1="12.444047%" y1="29.9012005%" x2="57.2474008%" y2="51.0554885%" id="linearGradient-1">
            <stop stop-color="#ECFFCF" offset="0%"></stop>
            <stop stop-color="#E5FBBD" offset="8.2%"></stop>
            <stop stop-color="#AFDF36" offset="72.06%"></stop>
            <stop stop-color="#99D400" offset="100%"></stop>
        </linearGradient>
    </defs>
    <g id="Symbols" stroke="none" stroke-width="1" fill="none" fill-rule="evenodd">
        <g id="NAV-Symbol">
            <g id="One.com-Logo">
                <path d="M106.459956,16.8833142 C104.01239,16.8833142 101.800896,17.8288892 100.204657,19.4085124 C98.6023023,20.9844706 97.6188724,23.1969205 97.6188724,25.7135669 C97.6188724,28.1972282 98.5509291,30.4047914 100.172855,31.9783062 C101.79111,33.5554861 104.098012,34.4888443 106.802444,34.4888443 C110.068312,34.4961744 112.402123,33.3697918 113.940873,31.5250655 L114.132911,31.295391 L111.802769,29.0243008 L111.575259,29.2771872 C110.53434,30.4487716 109.185182,31.2746226 106.753517,31.2819526 C105.240454,31.2819526 104.023398,30.8543671 103.124367,30.081048 C102.306066,29.3736993 101.759308,28.3755925 101.503665,27.1197126 L114.994024,27.1197126 L114.998916,26.7984126 L115.003809,26.5430829 C115.003809,23.7747718 114.197739,21.3619676 112.721371,19.6308569 C111.245003,17.9070763 109.084882,16.8833142 106.459956,16.8833142 Z M103.175741,21.2422436 C104.017283,20.5116832 105.12303,20.0950927 106.459956,20.0950927 C107.913084,20.101201 108.983359,20.55322 109.757627,21.304549 C110.451165,21.9764691 110.89273,22.8988323 111.12024,23.9616878 L101.612527,23.9616878 C101.886518,22.8316402 102.418597,21.8995037 103.175741,21.2422436 Z" id="Shape" fill="#282827"></path>
                <path d="M134.394747,29.3236107 C133.405201,30.3999047 131.987546,31.2306423 129.86412,31.2306423 C128.380413,31.2306423 127.176812,30.6393526 126.323038,29.6583492 C125.471711,28.672459 124.97388,27.2944118 124.97388,25.7135669 C124.97388,24.1070669 125.472934,22.7155813 126.323038,21.7223611 C127.175589,20.7389143 128.380413,20.1439596 129.86412,20.1439596 C131.651174,20.1439596 133.029688,20.7951113 134.000886,21.8567452 L134.216164,22.0949714 L136.722443,19.836098 L136.498602,19.5978717 C134.921934,17.863096 132.786277,16.8820926 129.86412,16.8820926 C127.415331,16.8820926 125.240532,17.8276675 123.678542,19.4097341 C122.118998,20.9832489 121.172263,23.1944771 121.172263,25.7123453 C121.172263,28.2045582 122.117775,30.4035697 123.678542,31.9770846 C125.239308,33.5396044 127.415331,34.4876227 129.86412,34.4876227 C132.9881,34.4949527 135.314572,33.4198804 136.902249,31.5238439 L137.106518,31.2734009 L134.610025,29.0878278 L134.394747,29.3236107 Z" id="Shape" fill="#282827"></path>
                <path d="M146.049125,16.8833142 C143.556302,16.8833142 141.319121,17.8288892 139.706981,19.4085124 C138.097287,20.9844706 137.112634,23.1969205 137.112634,25.7135669 C137.112634,28.21311 138.10218,30.4096781 139.706981,31.9783062 C141.319121,33.5505994 143.556302,34.4888443 146.049125,34.4888443 C148.519932,34.4888443 150.742435,33.5505994 152.346012,31.9783062 C153.950813,30.4108997 154.935466,28.21311 154.935466,25.7135669 C154.935466,23.1969205 153.952037,20.9844706 152.349682,19.4085124 C150.742435,17.8288892 148.519932,16.8833142 146.049125,16.8833142 Z M142.346585,21.6844893 C143.246839,20.6937124 144.514045,20.093871 146.049125,20.093871 C147.585429,20.093871 148.851411,20.6924908 149.752889,21.6844893 C150.653143,22.6801528 151.18033,24.0924068 151.18033,25.7135669 C151.165652,28.9155719 149.107054,31.2734009 146.049125,31.2807309 C142.99242,31.2734009 140.928929,28.9155719 140.916698,25.7135669 C140.916698,24.0924068 141.445108,22.6801528 142.346585,21.6844893 Z" id="Shape" fill="#282827"></path>
                <path d="M68.1563401,16.8833142 C65.6622934,16.8833142 63.427559,17.8288892 61.8178653,19.4085124 C60.2057252,20.9844706 59.2235185,23.1969205 59.2235185,25.7135669 C59.2235185,28.21311 60.2069484,30.4096781 61.8178653,31.9783062 C63.427559,33.5505994 65.6622934,34.4888443 68.1563401,34.4888443 C70.6247002,34.4888443 72.8520955,33.5505994 74.4544502,31.9783062 C76.0629208,30.4108997 77.0475738,28.21311 77.0475738,25.7135669 C77.0475738,23.1969205 76.0629208,20.9844706 74.4544502,19.4085124 C72.8520955,17.8288892 70.6247002,16.8833142 68.1563401,16.8833142 Z M64.4537999,21.6844893 C65.3552773,20.6937124 66.6237062,20.093871 68.1563401,20.093871 C69.6975362,20.093871 70.9622955,20.6924908 71.8637729,21.6844893 C72.7591345,22.6801528 73.2899909,24.0924068 73.2899909,25.7135669 C73.2753129,28.9155719 71.2142689,31.2734009 68.1563401,31.2807309 C65.1008576,31.2734009 63.0385905,28.9155719 63.0226892,25.7135669 C63.0226892,24.0924068 63.555992,22.6801528 64.4537999,21.6844893 Z" id="Shape" fill="#282827"></path>
                <path d="M93.5836296,19.4085124 C91.9788285,17.8288892 89.7514332,16.8833142 87.2830731,16.8833142 C84.7890264,16.8833142 82.554292,17.8288892 80.9421519,19.4085124 C79.3312351,20.9844706 78.3478052,23.1969205 78.3478052,25.7135669 L78.3478052,34.4876227 L82.1506454,34.4876227 L82.1506454,25.7135669 C82.1506454,24.0924068 82.6802787,22.6801528 83.5793097,21.6844893 C84.4783408,20.6937124 85.7479928,20.093871 87.2830731,20.093871 C88.8218229,20.093871 90.0865822,20.6924908 90.990506,21.6844893 C91.8834212,22.6801528 92.4155008,24.0924068 92.4155008,25.7135669 L92.4155008,34.4876227 L96.1718605,34.4876227 L96.1718605,25.7135669 C96.1718605,23.1956988 95.1896538,20.9844706 93.5836296,19.4085124 Z" id="Shape" fill="#282827"></path>
                <path d="M182.617061,19.1751729 C181.008591,17.5955496 179.246,16.8833142 176.751954,16.8833142 C174.257907,16.8833142 172.49654,17.5955496 170.886846,19.1751729 C170.768199,19.2887885 170.658113,19.4109558 170.548028,19.5355664 C170.441612,19.4109558 170.33275,19.2887885 170.214102,19.1751729 C168.605631,17.5955496 166.841818,16.8833142 164.347771,16.8833142 C161.854948,16.8833142 160.092358,17.5955496 158.480218,19.1751729 C156.869301,20.7535744 156.24426,23.1956988 156.24426,25.7135669 L156.24426,34.4876227 L160.044654,34.4876227 L160.044654,25.7135669 C160.044654,23.236014 160.237915,22.6166258 161.079457,21.5635436 C161.656794,20.8439782 162.813914,20.093871 164.347771,20.093871 C165.881628,20.093871 167.039972,20.8427565 167.616086,21.5635436 C168.458851,22.6166258 168.650889,23.236014 168.650889,25.7135669 L168.650889,34.4876227 L172.451283,34.4876227 L172.451283,25.7135669 C172.451283,23.236014 172.644544,22.6166258 173.484863,21.5635436 C174.063423,20.8439782 175.21932,20.093871 176.753177,20.093871 C178.288257,20.093871 179.447824,20.8427565 180.023937,21.5635436 C180.863033,22.6166258 181.057517,23.236014 181.057517,25.7135669 L181.057517,34.4876227 L184.857911,34.4876227 L184.857911,25.7135669 C184.856688,23.1956988 184.232871,20.7535744 182.617061,19.1751729 Z" id="Shape" fill="#282827"></path>
                <ellipse id="Oval" fill="#282827" cx="118.164484" cy="32.5329458" rx="1.9582976" ry="1.95589853"></ellipse>
                <g id="Swirl">
                    <path d="M1.38952284,24.8989181 C1.38952284,22.3431781 1.88123779,19.8277533 2.85243598,17.4283875 C4.29822471,13.8549939 6.71521163,10.8508999 9.84530754,8.73007549 C12.6194605,6.85358571 15.8278394,5.77240508 19.1242867,5.61236591 L19.9560433,5.59892751 C21.4421967,5.59892751 22.9381355,5.7895085 24.410834,6.16944882 C32.312522,8.2267462 38.0969001,15.5604494 38.4724137,24.0144268 L38.4932076,24.9050264 C38.4932076,27.5890421 37.9562353,30.1802106 36.9581274,32.5526996 C38.5898382,30.582141 39.5891693,28.1265782 39.7909926,25.515863 C39.7958853,25.4059124 39.8056707,24.7730858 39.8056707,24.7730858 L39.7897694,23.9325747 C39.7628597,23.4133637 39.715156,22.8599458 39.6429889,22.2478876 C38.5152247,12.7444931 31.52113,5.21532218 22.6360121,3.93623051 C21.7394274,3.80428982 20.8342804,3.74076283 19.9487043,3.74076283 L19.0753598,3.76275294 C14.9532718,3.96188565 11.0501315,5.47920355 7.79037939,8.14855913 C5.82229642,9.76483255 4.17468439,11.7280611 2.89280064,13.9747178 C1.01645553,17.265905 0.0269097734,21.0408746 0.0269097734,24.8781496 L0.0477036891,25.8872516 C0.228733074,30.0824768 1.57055223,34.0724609 3.91904154,37.4442785 L3.92026471,37.4442785 C4.38140037,38.1039819 4.89023972,38.7245918 5.41620348,39.3256549 C2.99799339,35.2477103 1.61825592,30.6126829 1.40787042,25.7834094 L1.38952284,24.8989181 Z" id="Shape" fill="#282827"></path>
                    <path d="M28.8998734,0.202797723 C28.5182439,0.202797723 28.1415071,0.221122819 27.7647703,0.24189126 C27.6106506,0.251664645 27.4528615,0.261438029 27.2987419,0.273654759 C26.4107194,0.33840343 25.5337054,0.452019022 24.6774853,0.616944882 C34.9790359,2.62048866 42.9002946,11.7891448 43.7308281,22.967453 C43.8078879,23.602723 43.8617074,24.2441013 43.8617074,24.9001398 C43.8617074,25.5586215 43.8078879,26.2048866 43.7308281,26.8364915 C42.8134494,34.6246571 36.4688588,40.6401751 28.8998734,40.6401751 C28.005735,40.6401751 27.1299442,40.5534363 26.2835095,40.3958405 C25.8333824,40.3127667 25.3979334,40.2052595 24.9661538,40.0806489 C24.8585147,40.0574371 24.7582147,40.0244519 24.6530219,39.9926884 C24.2750619,39.8778511 23.9044409,39.7385804 23.5387127,39.590758 C23.3075332,39.4979108 23.0788002,39.4050637 22.8512903,39.2999998 C22.328996,39.0654386 21.8213799,38.7991138 21.3321113,38.5083557 C18.7328718,36.9238457 16.6351326,34.5562434 15.3275623,31.7085236 C14.3820507,29.6500045 13.835293,27.3434858 13.835293,24.8989181 C13.835293,22.4629021 14.3820507,20.1563834 15.3275623,18.0905343 C16.6351326,15.2391494 18.7328718,12.8654387 21.3308881,11.2797071 C21.6892773,11.063471 22.0635678,10.86556 22.4439742,10.678644 C22.5271498,10.6371071 22.6091023,10.5919052 22.692278,10.555255 C23.2524905,10.2877086 23.8310507,10.0543691 24.4242888,9.86378807 L24.6530219,9.78437932 C23.3173186,9.36534547 21.9070019,9.13567094 20.4550973,9.13567094 L20.2973081,9.13567094 C17.5916528,9.16376942 15.0645804,9.94808351 12.8861119,11.2784854 C10.2819798,12.864217 8.1891333,15.2379277 6.88278612,18.0893126 C5.93849771,20.1551617 5.39174005,22.4616804 5.39174005,24.8976964 C5.39174005,29.9273243 6.82896658,34.613662 9.30099621,38.5266808 C10.476464,40.3836238 11.8843345,42.0585375 13.4805733,43.5147718 C14.0738115,44.0584163 14.6853972,44.5629672 15.3238928,45.041863 C16.7354327,46.0900585 18.2680666,46.9745498 19.8936615,47.6782334 C20.4844534,47.9311198 21.0862538,48.1644593 21.6990627,48.3697004 C22.5944243,48.6714536 23.5081334,48.9231183 24.4450828,49.1075909 L24.6774853,49.1625662 C24.8585147,49.1955514 25.0481063,49.2199848 25.2340284,49.2505266 L25.5104652,49.3006152 C26.6174354,49.4704278 27.7439763,49.570605 28.8998734,49.570605 C41.8153415,49.570605 52.2612262,38.4582671 52.2612262,24.8989181 C52.2612262,11.3481208 41.8153415,0.202797723 28.8998734,0.202797723 Z M28.8998734,47.1516924 C27.9213362,47.1516924 26.9317905,47.0735053 25.8994337,46.9134661 L25.4285127,46.8352791 L25.1484064,46.7900772 C25.0860246,46.7741954 24.9771624,46.7522053 24.9771624,46.7522053 L24.9221197,46.7424319 C24.1148265,46.5750627 23.2891857,46.3612699 22.4696608,46.0839501 C20.4122863,45.3912615 18.499246,44.391933 16.7684583,43.1055113 C16.2155848,42.6974725 15.6590418,42.2381234 15.1147304,41.7396808 C13.6664954,40.4178306 12.401736,38.9053994 11.3473622,37.2390374 C9.03312165,33.5764616 7.81117331,29.3152661 7.81117331,24.9001398 C7.81117331,22.8917093 8.23683699,20.9358108 9.08449485,19.0984145 C10.1902419,16.6758369 11.9430467,14.6893965 14.1447554,13.3418912 C14.8285083,12.927744 15.5489563,12.602779 16.2901983,12.3279026 C15.0083145,13.7218315 13.9404858,15.3197798 13.1258535,17.082654 C11.9907504,19.5614286 11.4170829,22.194134 11.4170829,24.8989181 C11.4170829,27.6122539 11.9944199,30.2400726 13.1258535,32.7139605 C14.6401399,36.011256 17.0448951,38.7258135 20.0795836,40.5717614 C20.4281875,40.7831109 20.7963621,40.9846869 21.1743221,41.1777112 C21.3957162,41.2901052 21.6146639,41.4024991 21.8421738,41.5051196 C21.9779458,41.5698683 22.1198337,41.6224002 22.2580521,41.6798189 C22.8109256,41.9156018 23.3735845,42.1330596 23.9558142,42.3102021 L24.3019717,42.4103793 C24.8120342,42.5533151 25.3306589,42.6779257 25.8358288,42.7695512 C26.849838,42.9625755 27.8834179,43.0590877 28.8998734,43.0590877 C37.654112,43.0590877 45.064085,36.2103887 46.1343601,27.129693 C46.233437,26.2940687 46.2786943,25.590385 46.2786943,24.9013614 C46.2786943,24.241658 46.2346602,23.5624078 46.1453686,22.7707637 C45.6096195,15.5909912 42.3877857,9.15643938 37.5061082,4.61548072 C44.7693007,8.1180173 49.8405698,15.8829711 49.8405698,24.9013614 C49.8405698,37.1681803 40.4453894,47.1516924 28.8998734,47.1516924 Z" id="Shape" fill="#282827"></path>
                    <path d="M28.8998734,47.1516924 C27.9213362,47.1516924 26.9317905,47.0735053 25.8994337,46.9134661 L25.4285127,46.8352791 L25.1484064,46.7900772 C25.0860246,46.7741954 24.9771624,46.7522053 24.9771624,46.7522053 L24.9221197,46.7424319 C24.1148265,46.5750627 23.2891857,46.3612699 22.4696608,46.0839501 C20.4122863,45.3912615 18.499246,44.391933 16.7684583,43.1055113 C16.2155848,42.6974725 15.6590418,42.2381234 15.1147304,41.7396808 C13.6664954,40.4178306 12.401736,38.9053994 11.3473622,37.2390374 C9.03312165,33.5764616 7.81117331,29.3152661 7.81117331,24.9001398 C7.81117331,22.8917093 8.23683699,20.9358108 9.08449485,19.0984145 C10.1902419,16.6758369 11.9430467,14.6893965 14.1447554,13.3418912 C14.8285083,12.927744 15.5489563,12.602779 16.2901983,12.3279026 C15.0083145,13.7218315 13.9404858,15.3197798 13.1258535,17.082654 C11.9907504,19.5614286 11.4170829,22.194134 11.4170829,24.8989181 C11.4170829,27.6122539 11.9944199,30.2400726 13.1258535,32.7139605 C14.6401399,36.011256 17.0448951,38.7258135 20.0795836,40.5717614 C20.4281875,40.7831109 20.7963621,40.9846869 21.1743221,41.1777112 C21.3957162,41.2901052 21.6146639,41.4024991 21.8421738,41.5051196 C21.9779458,41.5698683 22.1198337,41.6224002 22.2580521,41.6798189 C22.8109256,41.9156018 23.3735845,42.1330596 23.9558142,42.3102021 L24.3019717,42.4103793 C24.8120342,42.5533151 25.3306589,42.6779257 25.8358288,42.7695512 C26.849838,42.9625755 27.8834179,43.0590877 28.8998734,43.0590877 C37.654112,43.0590877 45.064085,36.2103887 46.1343601,27.129693 C46.233437,26.2940687 46.2786943,25.590385 46.2786943,24.9013614 C46.2786943,24.241658 46.2346602,23.5624078 46.1453686,22.7707637 C45.6096195,15.5909912 42.3877857,9.15643938 37.5061082,4.61548072 C44.7693007,8.1180173 49.8405698,15.8829711 49.8405698,24.9013614 C49.8405698,37.1681803 40.4453894,47.1516924 28.8998734,47.1516924 Z" id="Shape" fill="url(#linearGradient-1)"></path>
                </g>
            </g>
        </g>
    </g>
</svg>