<svg xmlns="http://www.w3.org/2000/svg" width="70.876" height="78.267" viewBox="0 0 70.876 78.267">
  <defs>
    <style>
      .cls-1 {
        fill: #8ed5fa;
      }
    </style>
  </defs>
  <path id="Icon_simple-webpack" data-name="Icon simple-webpack" class="cls-1" d="M72.2,62.9,40.336,80.839V66.863L60.187,55.992,72.2,62.9Zm2.179-1.965V23.405l-11.659,6.7V54.224ZM5.679,62.9l31.86,17.943V66.863L17.688,55.992,5.679,62.9ZM3.5,60.931V23.405l11.659,6.7V54.224L3.5,60.931ZM4.864,20.978,37.539,2.572V16.084L18.449,26.538l-1.843,1.009-.16.091L4.864,20.978Zm68.148,0L40.336,2.572V16.084L61.269,27.548l.16.091,11.583-6.661ZM37.539,63.685,17.955,52.964V31.721L37.539,42.98v20.7Zm2.8,0L59.92,52.964V31.721L40.336,42.98v20.7ZM19.281,29.263,38.941,18.5,58.6,29.263l-19.66,11.3Z" transform="translate(-3.5 -2.572)"/>
</svg>
