<svg xmlns="http://www.w3.org/2000/svg" width="25" height="23.75" viewBox="0 0 25 23.75">
  <defs>
    <style>
      .cls-1 {
        fill: #fff;
      }
    </style>
  </defs>
  <path id="Icon_material-work" data-name="Icon material-work" class="cls-1" d="M25.5,8h-5V5.5A2.491,2.491,0,0,0,18,3H13a2.491,2.491,0,0,0-2.5,2.5V8h-5a2.481,2.481,0,0,0-2.487,2.5L3,24.25a2.491,2.491,0,0,0,2.5,2.5h20a2.491,2.491,0,0,0,2.5-2.5V10.5A2.491,2.491,0,0,0,25.5,8ZM18,8H13V5.5h5Z" transform="translate(-3 -3)"/>
</svg>
