<svg xmlns="http://www.w3.org/2000/svg" width="25.881" height="18.115" viewBox="0 0 25.881 18.115">
  <defs>
    <style>
      .cls-1 {
        fill: #fff;
      }
    </style>
  </defs>
  <path id="Icon_awesome-coffee" data-name="Icon awesome-coffee" class="cls-1" d="M7.762,16.483h7.764A3.883,3.883,0,0,0,19.407,12.6H20.7a5.176,5.176,0,1,0,0-10.351H4.851a.968.968,0,0,0-.97.97V12.6A3.883,3.883,0,0,0,7.762,16.483ZM20.7,4.838a2.588,2.588,0,1,1,0,5.176H19.407V4.838ZM22.63,20.365H1.951C.027,20.365-.515,17.777.5,17.777H24.082C25.092,17.777,24.559,20.365,22.63,20.365Z" transform="translate(0.004 -2.25)"/>
</svg>
