<svg xmlns="http://www.w3.org/2000/svg" width="70.876" height="70.876" viewBox="0 0 70.876 70.876">
  <defs>
    <style>
      .cls-1 {
        fill: #f7e01e;
      }
    </style>
  </defs>
  <path id="Icon_simple-javascript" data-name="Icon simple-javascript" class="cls-1" d="M0,0H70.876V70.876H0ZM65.07,53.972c-.517-3.234-2.622-5.951-8.868-8.484-2.174-1.019-4.589-1.728-5.307-3.367a3.487,3.487,0,0,1-.136-2.082c.443-1.908,2.7-2.481,4.474-1.949a4.8,4.8,0,0,1,2.882,2.658c3.054-2,3.054-2,5.183-3.322a12.189,12.189,0,0,0-1.731-2.3c-1.86-2.082-4.338-3.145-8.369-3.054l-2.082.263a9.519,9.519,0,0,0-5.05,2.968c-3.367,3.813-2.4,10.457,1.68,13.2,4.031,3.012,9.926,3.674,10.679,6.512.709,3.455-2.569,4.563-5.806,4.164-2.4-.532-3.721-1.731-5.183-3.945l-5.4,3.1a11.942,11.942,0,0,0,2.392,3.275c5.139,5.186,17.985,4.92,20.291-2.965a9.994,9.994,0,0,0,.219-4.873Zm-26.528-21.4H31.9c0,5.723-.027,11.411-.027,17.143,0,3.638.186,6.978-.408,8.006-.975,2.035-3.485,1.775-4.625,1.418a5.7,5.7,0,0,1-2.451-2.525,2.533,2.533,0,0,0-.375-.579l-5.39,3.322a10.445,10.445,0,0,0,3.91,4.48,13,13,0,0,0,9.471,1.2,8.3,8.3,0,0,0,5.348-4.167c1.506-2.746,1.187-6.113,1.172-9.881.035-6.066,0-12.135,0-18.248l.012-.165Z"/>
</svg>
