<svg xmlns="http://www.w3.org/2000/svg" width="70.876" height="67.216" viewBox="0 0 70.876 67.216">
  <defs>
    <style>
      .cls-1 {
        fill: #7649bd;
      }
    </style>
  </defs>
  <path id="Icon_simple-redux" data-name="Icon simple-redux" class="cls-1" d="M49.123,47.84a4.915,4.915,0,0,0,4.427-5.18,5.1,5.1,0,0,0-5.044-4.867h-.18a5.05,5.05,0,0,0-4.867,5.225,5.391,5.391,0,0,0,1.459,3.405c-3.1,6.019-7.741,10.443-14.779,14.162a24.23,24.23,0,0,1-14.6,2.744c-4.07-.573-7.254-2.392-9.2-5.31a13.2,13.2,0,0,1-.753-13.981,20.867,20.867,0,0,1,6.2-7.215,29.416,29.416,0,0,1-1.24-4.554C-2.561,41.65-1.229,54.479,2.752,60.543,5.717,64.967,11.781,67.8,18.417,67.8a22.984,22.984,0,0,0,5.443-.573A34.622,34.622,0,0,0,49.082,47.932l.041-.092ZM64.918,36.777C58.063,28.723,47.971,24.3,36.465,24.3H34.959a4.762,4.762,0,0,0-4.421-2.655H30.4a4.952,4.952,0,0,0-4.864,5.177,5.1,5.1,0,0,0,5.044,4.867H30.8a4.993,4.993,0,0,0,4.424-3.1h1.639a34.269,34.269,0,0,1,19.162,5.883A24.257,24.257,0,0,1,65.586,45.98,12.219,12.219,0,0,1,65.453,56.6a13.154,13.154,0,0,1-12.389,7.434,23.1,23.1,0,0,1-8.763-1.9c-1.06.88-2.832,2.342-4.117,3.228A28.412,28.412,0,0,0,51.82,68.148c8.63,0,15.042-4.864,17.478-9.557,2.652-5.31,2.434-14.247-4.339-21.9ZM19.167,49.429A5.093,5.093,0,0,0,24.211,54.3h.177a5.045,5.045,0,0,0-.133-10.086h-.18a1.9,1.9,0,0,0-.665.086,33.051,33.051,0,0,1-4.643-20,24.021,24.021,0,0,1,5.307-13.984c2.655-3.32,7.655-4.959,11.063-5.044C44.7,5.09,48.68,17,48.987,21.732l4.424,1.326C52.393,8.545,43.37.931,34.74.931c-8.1,0-15.573,5.886-18.586,14.516-4.114,11.506-1.415,22.567,3.63,31.418a3.915,3.915,0,0,0-.617,2.564Z" transform="translate(0 -0.931)"/>
</svg>
