<svg xmlns="http://www.w3.org/2000/svg" width="70.88" height="70.88" viewBox="0 0 70.88 70.88">
  <defs>
    <style>
      .cls-1 {
        fill: #0077c6;
      }
    </style>
  </defs>
  <path id="Icon_simple-typescript" data-name="Icon simple-typescript" class="cls-1" d="M0,35.44V70.88H70.88V0H0Zm57.12-2.823a8.812,8.812,0,0,1,4.433,2.555,11.458,11.458,0,0,1,1.7,2.274c.024.089-3.06,2.156-4.926,3.317-.068.044-.34-.248-.641-.7a4.02,4.02,0,0,0-3.331-2c-2.15-.148-3.532.978-3.52,2.856a2.6,2.6,0,0,0,.3,1.329c.473.978,1.353,1.565,4.105,2.755,5.077,2.185,7.247,3.624,8.6,5.67a10.288,10.288,0,0,1,.821,8.641c-1.122,2.947-3.913,4.95-7.841,5.611a21.628,21.628,0,0,1-5.4-.053,13.033,13.033,0,0,1-7.212-3.76,12.484,12.484,0,0,1-1.846-2.732,4.669,4.669,0,0,1,.65-.416c.319-.18,1.509-.868,2.634-1.521l2.038-1.181.428.632A9.522,9.522,0,0,0,50.8,58.47c2.262,1.193,5.366,1.025,6.9-.348a3.075,3.075,0,0,0,.393-3.928c-.549-.786-1.675-1.447-4.87-2.835-3.656-1.574-5.23-2.552-6.672-4.105A9.347,9.347,0,0,1,44.6,43.709a14.256,14.256,0,0,1-.124-4.522,8.636,8.636,0,0,1,7.268-6.728,17.94,17.94,0,0,1,5.378.157ZM40.481,35.576l.024,2.9H31.276V64.693H24.749V38.479h-9.22V35.632a28.326,28.326,0,0,1,.077-2.924c.035-.047,5.65-.071,12.454-.059l12.389.035Z"/>
</svg>
